<?xml version="1.0" standalone="no"?>
<!DOCTYPE svg PUBLIC "-//W3C//DTD SVG 20010904//EN"
 "http://www.w3.org/TR/2001/REC-SVG-20010904/DTD/svg10.dtd">
<svg version="1.0" xmlns="http://www.w3.org/2000/svg"
 width="260.000000pt" height="260.000000pt" viewBox="0 0 260.000000 260.000000"
 preserveAspectRatio="xMidYMid meet">
<metadata>
Created by potrace 1.11, written by Peter Selinger 2001-2013
</metadata>
<g transform="translate(0.000000,260.000000) scale(0.100000,-0.100000)"
fill="#000000" stroke="none">
<path d="M1150 2593 c-290 -44 -519 -149 -720 -330 -286 -257 -434 -604 -425
-993 2 -80 6 -158 10 -175 21 -100 28 -128 51 -200 32 -99 73 -187 135 -287
43 -69 46 -79 31 -88 -9 -5 -13 -10 -8 -10 5 0 1 -9 -8 -19 -19 -20 -24 -39
-25 -84 -1 -17 -5 -26 -11 -22 -7 4 -10 -16 -8 -58 2 -36 6 -63 10 -60 5 2 8
-4 8 -13 0 -10 3 -15 6 -11 3 3 20 -8 36 -24 17 -16 37 -29 44 -29 7 0 14 -5
16 -10 2 -6 22 -11 46 -13 23 -1 42 -4 42 -7 0 -5 61 -4 68 0 1 1 12 3 25 3
12 1 28 7 36 15 11 11 15 11 22 0 7 -10 9 -10 9 1 0 8 3 12 6 8 4 -3 14 1 22
10 10 10 17 12 20 5 2 -6 9 -9 17 -6 7 3 16 1 19 -4 3 -5 44 -29 91 -52 80
-39 109 -60 87 -60 -6 0 -8 -10 -4 -22 4 -15 2 -19 -7 -14 -8 6 -11 2 -9 -10
2 -12 -2 -18 -10 -16 -8 1 -11 -2 -7 -7 4 -7 223 -10 614 -10 522 0 611 2 621
14 10 12 10 15 0 15 -9 0 -9 4 1 17 8 9 12 19 11 22 -19 31 -21 40 -12 46 6 4
7 12 3 18 -4 7 -8 19 -8 27 0 8 -4 21 -9 29 -6 9 -5 12 2 7 5 -3 12 -3 14 2 1
4 37 33 78 64 118 88 232 210 308 328 23 35 37 49 40 40 3 -8 9 -18 14 -21 5
-3 11 -16 13 -29 2 -13 9 -26 14 -30 6 -3 17 -22 26 -43 8 -20 20 -37 26 -37
6 0 9 -7 5 -15 -3 -9 3 -24 14 -35 11 -11 17 -20 13 -20 -3 0 1 -8 10 -18 10
-10 15 -21 12 -24 -3 -3 1 -8 9 -11 13 -5 15 92 15 779 0 609 -2 784 -12 785
-28 3 -53 -4 -69 -18 -12 -10 -18 -11 -23 -3 -5 8 -10 9 -14 2 -9 -15 -23 -3
-45 38 -81 149 -264 351 -401 442 -141 94 -303 163 -480 204 -66 15 -340 27
-405 17z"/>
</g>
</svg>
